<?xml version="1.0" encoding="UTF-8" standalone="no"?>
<!DOCTYPE svg PUBLIC "-//W3C//DTD SVG 1.1//EN"
 "http://www.w3.org/Graphics/SVG/1.1/DTD/svg11.dtd">
<!-- Generated by graphviz version 2.40.1 (20161225.0304)
 -->
<!-- Title: dependencies Pages: 1 -->
<svg width="614pt" height="290pt"
 viewBox="0.00 0.00 614.00 290.00" xmlns="http://www.w3.org/2000/svg" xmlns:xlink="http://www.w3.org/1999/xlink">
<g id="graph0" class="graph" transform="scale(1 1) rotate(0) translate(4 286)">
<title>dependencies</title>
<polygon fill="#ffffff" stroke="transparent" points="-4,4 -4,-286 610,-286 610,4 -4,4"/>
<text text-anchor="start" x="282.0091" y="-42.4" font-family="sans-serif" font-weight="bold" font-size="14.00" fill="#000000">Legend</text>
<polygon fill="#ffffb3" stroke="transparent" points="69,-10 69,-30 89,-30 89,-10 69,-10"/>
<text text-anchor="start" x="92.629" y="-15.4" font-family="sans-serif" font-size="14.00" fill="#000000"> &#160;Declarations</text>
<polygon fill="#8dd3c7" stroke="transparent" points="182,-10 182,-30 202,-30 202,-10 182,-10"/>
<text text-anchor="start" x="205.7251" y="-15.4" font-family="sans-serif" font-size="14.00" fill="#000000"> &#160;Module</text>
<polygon fill="#80b1d3" stroke="transparent" points="268,-10 268,-30 288,-30 288,-10 268,-10"/>
<text text-anchor="start" x="291.7812" y="-15.4" font-family="sans-serif" font-size="14.00" fill="#000000"> &#160;Bootstrap</text>
<polygon fill="#fdb462" stroke="transparent" points="365,-10 365,-30 385,-30 385,-10 365,-10"/>
<text text-anchor="start" x="388.6732" y="-15.4" font-family="sans-serif" font-size="14.00" fill="#000000"> &#160;Providers</text>
<polygon fill="#fb8072" stroke="transparent" points="461,-10 461,-30 481,-30 481,-10 461,-10"/>
<text text-anchor="start" x="484.7258" y="-15.4" font-family="sans-serif" font-size="14.00" fill="#000000"> &#160;Exports</text>
<g id="clust1" class="cluster">
<title>cluster_AppModule</title>
<polygon fill="none" stroke="#000000" stroke-dasharray="1,5" points="8,-70 8,-274 292,-274 292,-70 8,-70"/>
</g>
<g id="clust2" class="cluster">
<title>cluster_AppModule_declarations</title>
<polygon fill="none" stroke="#000000" points="16,-78 16,-130 138,-130 138,-78 16,-78"/>
</g>
<g id="clust4" class="cluster">
<title>cluster_AppModule_imports</title>
<polygon fill="none" stroke="#000000" points="146,-78 146,-130 284,-130 284,-78 146,-78"/>
</g>
<g id="clust6" class="cluster">
<title>cluster_AppModule_bootstrap</title>
<polygon fill="none" stroke="#000000" points="84,-214 84,-266 208,-266 208,-214 84,-214"/>
</g>
<g id="clust8" class="cluster">
<title>cluster_NgxDialogModule</title>
<polygon fill="none" stroke="#000000" stroke-dasharray="1,5" points="300,-138 300,-206 598,-206 598,-138 300,-138"/>
</g>
<g id="clust9" class="cluster">
<title>cluster_NgxDialogModule_declarations</title>
<polygon fill="none" stroke="#000000" points="454,-146 454,-198 590,-198 590,-146 454,-146"/>
</g>
<g id="clust12" class="cluster">
<title>cluster_NgxDialogModule_exports</title>
<polygon fill="none" stroke="#000000" points="308,-146 308,-198 446,-198 446,-146 308,-146"/>
</g>
<!-- AppComponent -->
<g id="node1" class="node">
<title>AppComponent</title>
<polygon fill="#ffffb3" stroke="#000000" points="129.9399,-122 24.0601,-122 24.0601,-86 129.9399,-86 129.9399,-122"/>
<text text-anchor="middle" x="77" y="-99.8" font-family="Times,serif" font-size="14.00" fill="#000000">AppComponent</text>
</g>
<!-- AppModule -->
<g id="node2" class="node">
<title>AppModule</title>
<polygon fill="#8dd3c7" stroke="#000000" points="187.6571,-190 184.6571,-194 163.6571,-194 160.6571,-190 104.3429,-190 104.3429,-154 187.6571,-154 187.6571,-190"/>
<text text-anchor="middle" x="146" y="-167.8" font-family="Times,serif" font-size="14.00" fill="#000000">AppModule</text>
</g>
<!-- AppComponent&#45;&gt;AppModule -->
<g id="edge1" class="edge">
<title>AppComponent&#45;&gt;AppModule</title>
<path fill="none" stroke="#000000" d="M116.9457,-122.2228C116.9457,-122.2228 116.9457,-143.7269 116.9457,-143.7269"/>
<polygon fill="#000000" stroke="#000000" points="113.4457,-143.7269 116.9457,-153.7269 120.4457,-143.727 113.4457,-143.7269"/>
</g>
<!-- AppComponent  -->
<g id="node4" class="node">
<title>AppComponent </title>
<polygon fill="#80b1d3" stroke="#000000" points="200.439,-258 91.561,-258 91.561,-222 200.439,-222 200.439,-258"/>
<text text-anchor="middle" x="146" y="-235.8" font-family="Times,serif" font-size="14.00" fill="#000000">AppComponent </text>
</g>
<!-- AppModule&#45;&gt;AppComponent  -->
<g id="edge3" class="edge">
<title>AppModule&#45;&gt;AppComponent </title>
<path fill="none" stroke="#000000" stroke-dasharray="1,5" d="M146,-190.2228C146,-190.2228 146,-211.7269 146,-211.7269"/>
<polygon fill="#000000" stroke="#000000" points="142.5001,-211.7269 146,-221.7269 149.5001,-211.727 142.5001,-211.7269"/>
</g>
<!-- NgxDialogModule -->
<g id="node3" class="node">
<title>NgxDialogModule</title>
<polygon fill="#8dd3c7" stroke="#000000" points="275.759,-122 272.759,-126 251.759,-126 248.759,-122 154.241,-122 154.241,-86 275.759,-86 275.759,-122"/>
<text text-anchor="middle" x="215" y="-99.8" font-family="Times,serif" font-size="14.00" fill="#000000">NgxDialogModule</text>
</g>
<!-- NgxDialogModule&#45;&gt;AppModule -->
<g id="edge2" class="edge">
<title>NgxDialogModule&#45;&gt;AppModule</title>
<path fill="none" stroke="#000000" d="M170.9744,-122.2228C170.9744,-122.2228 170.9744,-143.7269 170.9744,-143.7269"/>
<polygon fill="#000000" stroke="#000000" points="167.4745,-143.7269 170.9744,-153.7269 174.4745,-143.727 167.4745,-143.7269"/>
</g>
<!-- DialogComponent  -->
<g id="node6" class="node">
<title>DialogComponent </title>
<polygon fill="#fb8072" stroke="#000000" points="438.4348,-190 315.5652,-190 315.5652,-154 438.4348,-154 438.4348,-190"/>
<text text-anchor="middle" x="377" y="-167.8" font-family="Times,serif" font-size="14.00" fill="#000000">DialogComponent </text>
</g>
<!-- NgxDialogModule&#45;&gt;DialogComponent  -->
<g id="edge5" class="edge">
<title>NgxDialogModule&#45;&gt;DialogComponent </title>
<path fill="none" stroke="#000000" stroke-dasharray="5,2" d="M238.1745,-122.2228C238.1745,-142.3652 238.1745,-172 238.1745,-172 238.1745,-172 305.3006,-172 305.3006,-172"/>
<polygon fill="#000000" stroke="#000000" points="305.3007,-175.5001 315.3006,-172 305.3006,-168.5001 305.3007,-175.5001"/>
</g>
<!-- DialogComponent -->
<g id="node5" class="node">
<title>DialogComponent</title>
<polygon fill="#ffffb3" stroke="#000000" points="581.9356,-190 462.0644,-190 462.0644,-154 581.9356,-154 581.9356,-190"/>
<text text-anchor="middle" x="522" y="-167.8" font-family="Times,serif" font-size="14.00" fill="#000000">DialogComponent</text>
</g>
<!-- DialogComponent&#45;&gt;NgxDialogModule -->
<g id="edge4" class="edge">
<title>DialogComponent&#45;&gt;NgxDialogModule</title>
<path fill="none" stroke="#000000" d="M522,-153.7772C522,-133.6348 522,-104 522,-104 522,-104 286.0204,-104 286.0204,-104"/>
<polygon fill="#000000" stroke="#000000" points="286.0204,-100.5001 276.0204,-104 286.0203,-107.5001 286.0204,-100.5001"/>
</g>
</g>
</svg>
